<svg width="850" height="343" viewBox="0 0 850 343" fill="none" xmlns="http://www.w3.org/2000/svg">
<g clip-path="url(#clip0_3_10)">
<path d="M179.258 110C191.339 110 203.42 110 215.867 110C217.309 113.701 218.75 117.402 220.235 121.215C221.853 125.292 221.853 125.292 223.472 129.369C224.933 133.054 226.357 136.752 227.781 140.449C227.925 140.823 228.069 141.196 228.213 141.57C228.35 141.928 228.488 142.285 228.626 142.643C229.217 144.178 229.818 145.711 230.439 147.237C230.844 148.244 230.844 148.244 230.844 148.672C214.37 148.768 214.37 148.768 197.562 148.865C195.829 153.255 195.829 153.255 194.153 157.66C193.766 158.684 193.338 159.693 192.908 160.702C192.457 161.767 192.047 162.841 191.647 163.923C191.096 165.415 190.486 166.879 189.847 168.34C189.358 169.463 188.91 170.594 188.484 171.738C188.036 172.94 187.555 174.129 187.071 175.319C186.43 176.898 185.813 178.482 185.22 180.078C184.68 181.525 184.101 182.959 183.513 184.39C183.023 185.591 182.56 186.798 182.106 188.01C181.345 190.042 180.558 192.065 179.765 194.087C179.62 194.457 179.475 194.827 179.331 195.196C178.312 197.796 177.283 200.393 176.251 202.989C175.53 204.803 174.82 206.618 174.142 208.447C173.612 209.871 173.037 211.28 172.463 212.69C171.971 213.903 171.497 215.121 171.042 216.348C170.437 217.975 169.79 219.586 169.135 221.197C168.581 222.564 168.054 223.939 167.541 225.32C166.983 226.815 166.384 228.294 165.778 229.773C165.24 231.09 164.762 232.41 164.281 233.75C153.298 233.75 142.316 233.75 131 233.75C132.668 229.099 132.668 229.099 133.386 227.317C133.555 226.892 133.725 226.467 133.894 226.042C133.982 225.824 134.069 225.605 134.159 225.38C134.64 224.178 135.119 222.975 135.596 221.772C135.646 221.647 135.696 221.522 135.747 221.392C136.955 218.352 138.132 215.302 139.307 212.251C139.708 211.212 140.108 210.173 140.509 209.134C140.557 209.01 140.605 208.886 140.654 208.758C141.628 206.235 142.622 203.719 143.624 201.206C144.26 199.611 144.88 198.012 145.476 196.404C145.998 195.002 146.56 193.615 147.129 192.23C147.611 191.05 148.066 189.863 148.512 188.67C149.313 186.528 150.159 184.403 151.007 182.277C152.72 177.98 154.404 173.675 156.065 169.361C157.669 165.196 159.297 161.039 160.949 156.89C162.52 152.944 164.052 148.987 165.564 145.021C166.429 142.755 167.309 140.496 168.226 138.248C168.698 137.088 169.151 135.923 169.585 134.75C170.182 133.145 170.815 131.555 171.466 129.969C171.943 128.8 172.394 127.625 172.835 126.444C173.751 123.992 174.724 121.56 175.694 119.126C176.031 118.278 176.369 117.43 176.706 116.583C176.883 116.135 177.061 115.688 177.24 115.241C177.932 113.5 178.593 111.751 179.258 110Z" fill="#848484"/>
<path d="M206.2 164C206.402 164 206.604 164.001 206.813 164.001C207.044 164.001 207.275 164 207.513 164C207.769 164.001 208.025 164.001 208.289 164.002C208.557 164.002 208.825 164.002 209.101 164.002C209.837 164.002 210.574 164.003 211.311 164.004C212.08 164.006 212.849 164.006 213.618 164.006C215.075 164.007 216.532 164.008 217.989 164.01C219.647 164.012 221.306 164.013 222.964 164.014C226.377 164.016 229.79 164.02 233.202 164.024C233.335 164.3 233.467 164.575 233.6 164.851C233.711 165.082 233.711 165.082 233.824 165.317C234.105 165.916 234.355 166.524 234.601 167.137C234.653 167.268 234.706 167.398 234.76 167.533C234.876 167.823 234.993 168.113 235.109 168.403C235.375 169.071 235.643 169.737 235.911 170.404C236.065 170.787 236.219 171.17 236.372 171.552C237.052 173.246 237.735 174.938 238.419 176.629C240.821 182.575 243.215 188.523 245.592 194.478C247.437 199.103 249.291 203.726 251.158 208.343C251.848 210.05 252.537 211.758 253.225 213.465C253.283 213.608 253.34 213.75 253.4 213.897C253.997 215.377 254.594 216.857 255.19 218.337C255.49 219.08 255.789 219.822 256.089 220.565C256.148 220.713 256.208 220.86 256.269 221.012C257.12 223.123 257.974 225.233 258.828 227.343C259.18 228.211 259.531 229.079 259.882 229.947C260.215 230.77 260.548 231.592 260.882 232.414C261.037 232.797 261.192 233.18 261.347 233.563C261.535 234.028 261.724 234.494 261.913 234.959C261.996 235.162 262.078 235.365 262.162 235.575C262.234 235.752 262.306 235.929 262.38 236.111C262.531 236.534 262.531 236.534 262.531 236.921C252.509 236.921 242.488 236.921 232.162 236.921C231.683 235.807 231.225 234.74 230.827 233.609C230.735 233.347 230.642 233.085 230.549 232.824C230.501 232.687 230.453 232.55 230.403 232.408C229.327 229.357 228.203 226.321 227.066 223.289C225.766 219.819 224.491 216.343 223.252 212.855C222.705 211.317 222.154 209.781 221.602 208.246C221.442 207.798 221.281 207.35 221.121 206.903C221.071 206.764 221.021 206.626 220.97 206.483C220.875 206.217 220.78 205.951 220.685 205.685C220.492 205.145 220.297 204.606 220.097 204.068C219.682 202.948 219.682 202.948 219.682 202.309C219.544 202.309 219.407 202.309 219.266 202.309C219.231 202.433 219.197 202.557 219.162 202.685C218.749 204.141 218.243 205.554 217.706 206.974C217.517 207.475 217.33 207.977 217.142 208.479C217.094 208.608 217.046 208.736 216.997 208.869C216.525 210.134 216.072 211.405 215.621 212.676C214.696 215.276 213.739 217.865 212.765 220.449C211.656 223.393 210.558 226.342 209.476 229.295C209.38 229.557 209.38 229.557 209.282 229.824C209.097 230.328 208.913 230.833 208.728 231.338C208.67 231.497 208.611 231.656 208.551 231.82C208.255 232.632 207.962 233.445 207.673 234.259C207.616 234.421 207.558 234.583 207.499 234.75C207.39 235.058 207.282 235.366 207.174 235.674C206.808 236.706 206.808 236.706 206.577 236.921C206.182 236.939 205.787 236.944 205.391 236.944C205.134 236.944 204.876 236.944 204.611 236.945C204.323 236.944 204.035 236.943 203.747 236.942C203.445 236.942 203.144 236.942 202.843 236.943C202.022 236.943 201.202 236.942 200.382 236.94C199.525 236.939 198.669 236.939 197.812 236.939C196.189 236.938 194.567 236.936 192.944 236.934C191.096 236.932 189.249 236.931 187.402 236.93C183.601 236.928 179.801 236.925 176 236.921C176.227 236.314 176.455 235.708 176.682 235.102C176.777 234.848 176.777 234.848 176.874 234.59C177.415 233.152 177.978 231.722 178.556 230.297C178.65 230.067 178.65 230.067 178.745 229.832C178.841 229.596 178.841 229.596 178.938 229.355C179.074 229.021 179.209 228.686 179.344 228.351C180.955 224.373 182.581 220.399 184.245 216.44C184.594 215.608 184.937 214.774 185.273 213.937C185.326 213.808 185.378 213.678 185.432 213.544C185.616 213.086 185.8 212.629 185.984 212.171C188.333 206.332 190.689 200.497 193.096 194.679C193.794 192.993 194.484 191.305 195.163 189.612C197.497 183.799 199.842 177.99 202.238 172.199C202.382 171.851 202.526 171.502 202.67 171.154C202.738 170.99 202.806 170.826 202.876 170.656C203.406 169.373 203.927 168.086 204.444 166.797C205.56 164.034 205.56 164.034 206.2 164Z" fill="#848484"/>
<path d="M308.616 182.912H289.992L286.792 192H279.176L295.112 147.456H303.56L319.496 192H311.816L308.616 182.912ZM306.568 176.96L299.336 156.288L292.04 176.96H306.568ZM323.993 174.336C323.993 170.709 324.718 167.531 326.169 164.8C327.662 162.027 329.71 159.893 332.313 158.4C334.916 156.907 337.902 156.16 341.273 156.16C345.54 156.16 349.06 157.184 351.833 159.232C354.649 161.237 356.548 164.117 357.529 167.872H349.657C349.017 166.123 347.993 164.757 346.585 163.776C345.177 162.795 343.406 162.304 341.273 162.304C338.286 162.304 335.897 163.371 334.105 165.504C332.356 167.595 331.481 170.539 331.481 174.336C331.481 178.133 332.356 181.099 334.105 183.232C335.897 185.365 338.286 186.432 341.273 186.432C345.497 186.432 348.292 184.576 349.657 180.864H357.529C356.505 184.448 354.585 187.307 351.769 189.44C348.953 191.531 345.454 192.576 341.273 192.576C337.902 192.576 334.916 191.829 332.313 190.336C329.71 188.8 327.662 186.667 326.169 183.936C324.718 181.163 323.993 177.963 323.993 174.336ZM397.12 173.504C397.12 174.827 397.035 176.021 396.864 177.088H369.92C370.133 179.904 371.179 182.165 373.056 183.872C374.933 185.579 377.237 186.432 379.968 186.432C383.893 186.432 386.667 184.789 388.288 181.504H396.16C395.093 184.747 393.152 187.413 390.336 189.504C387.563 191.552 384.107 192.576 379.968 192.576C376.597 192.576 373.568 191.829 370.88 190.336C368.235 188.8 366.144 186.667 364.608 183.936C363.115 181.163 362.368 177.963 362.368 174.336C362.368 170.709 363.093 167.531 364.544 164.8C366.037 162.027 368.107 159.893 370.752 158.4C373.44 156.907 376.512 156.16 379.968 156.16C383.296 156.16 386.261 156.885 388.864 158.336C391.467 159.787 393.493 161.835 394.944 164.48C396.395 167.083 397.12 170.091 397.12 173.504ZM389.504 171.2C389.461 168.512 388.501 166.357 386.624 164.736C384.747 163.115 382.421 162.304 379.648 162.304C377.131 162.304 374.976 163.115 373.184 164.736C371.392 166.315 370.325 168.469 369.984 171.2H389.504ZM412.812 162.688V182.208C412.812 183.531 413.111 184.491 413.708 185.088C414.348 185.643 415.415 185.92 416.908 185.92H421.388V192H415.628C412.343 192 409.825 191.232 408.076 189.696C406.327 188.16 405.452 185.664 405.452 182.208V162.688H401.292V156.736H405.452V147.968H412.812V156.736H421.388V162.688H412.812ZM460.433 173.504C460.433 174.827 460.347 176.021 460.177 177.088H433.233C433.446 179.904 434.491 182.165 436.369 183.872C438.246 185.579 440.55 186.432 443.281 186.432C447.206 186.432 449.979 184.789 451.601 181.504H459.472C458.406 184.747 456.465 187.413 453.649 189.504C450.875 191.552 447.419 192.576 443.281 192.576C439.91 192.576 436.881 191.829 434.193 190.336C431.547 188.8 429.457 186.667 427.921 183.936C426.427 181.163 425.681 177.963 425.681 174.336C425.681 170.709 426.406 167.531 427.857 164.8C429.35 162.027 431.419 159.893 434.065 158.4C436.753 156.907 439.825 156.16 443.281 156.16C446.609 156.16 449.574 156.885 452.177 158.336C454.779 159.787 456.806 161.835 458.257 164.48C459.707 167.083 460.433 170.091 460.433 173.504ZM452.817 171.2C452.774 168.512 451.814 166.357 449.937 164.736C448.059 163.115 445.734 162.304 442.961 162.304C440.443 162.304 438.289 163.115 436.497 164.736C434.705 166.315 433.638 168.469 433.297 171.2H452.817ZM474.909 161.856C475.975 160.064 477.383 158.677 479.133 157.696C480.925 156.672 483.037 156.16 485.469 156.16V163.712H483.613C480.754 163.712 478.578 164.437 477.085 165.888C475.634 167.339 474.909 169.856 474.909 173.44V192H467.613V156.736H474.909V161.856ZM509.967 156.16C512.74 156.16 515.215 156.736 517.391 157.888C519.61 159.04 521.338 160.747 522.575 163.008C523.812 165.269 524.431 168 524.431 171.2V192H517.199V172.288C517.199 169.131 516.41 166.72 514.831 165.056C513.252 163.349 511.098 162.496 508.367 162.496C505.636 162.496 503.46 163.349 501.839 165.056C500.26 166.72 499.471 169.131 499.471 172.288V192H492.175V156.736H499.471V160.768C500.666 159.317 502.18 158.187 504.015 157.376C505.892 156.565 507.876 156.16 509.967 156.16ZM537.45 152.064C536.127 152.064 535.018 151.616 534.122 150.72C533.226 149.824 532.778 148.715 532.778 147.392C532.778 146.069 533.226 144.96 534.122 144.064C535.018 143.168 536.127 142.72 537.45 142.72C538.73 142.72 539.818 143.168 540.714 144.064C541.61 144.96 542.058 146.069 542.058 147.392C542.058 148.715 541.61 149.824 540.714 150.72C539.818 151.616 538.73 152.064 537.45 152.064ZM541.034 156.736V192H533.738V156.736H541.034ZM559.125 162.688V182.208C559.125 183.531 559.423 184.491 560.021 185.088C560.661 185.643 561.727 185.92 563.221 185.92H567.701V192H561.941C558.655 192 556.138 191.232 554.389 189.696C552.639 188.16 551.765 185.664 551.765 182.208V162.688H547.605V156.736H551.765V147.968H559.125V156.736H567.701V162.688H559.125ZM606.169 156.736L584.537 208.576H576.985L584.153 191.424L570.265 156.736H578.393L588.313 183.616L598.617 156.736H606.169ZM635.532 147.52V175.872C635.532 179.243 636.407 181.781 638.156 183.488C639.948 185.195 642.423 186.048 645.58 186.048C648.78 186.048 651.255 185.195 653.004 183.488C654.796 181.781 655.692 179.243 655.692 175.872V147.52H662.988V175.744C662.988 179.371 662.199 182.443 660.62 184.96C659.041 187.477 656.929 189.355 654.284 190.592C651.639 191.829 648.716 192.448 645.516 192.448C642.316 192.448 639.393 191.829 636.748 190.592C634.145 189.355 632.076 187.477 630.54 184.96C629.004 182.443 628.236 179.371 628.236 175.744V147.52H635.532ZM679.784 147.52V192H672.488V147.52H679.784Z" fill="#848484"/>
</g>
<defs>
<clipPath id="clip0_3_10">
<rect width="850" height="343" fill="white"/>
</clipPath>
</defs>
</svg>
